<?xml version="1.0" encoding="utf-8"?>
<!-- Generator: Adobe Illustrator 15.1.0, SVG Export Plug-In . SVG Version: 6.00 Build 0)  -->
<svg version="1.2" baseProfile="tiny" id="Layer_1" xmlns="http://www.w3.org/2000/svg" xmlns:xlink="http://www.w3.org/1999/xlink"
	 x="0px" y="0px" width="134.754px" height="168.269px" viewBox="0 0 134.754 168.269" overflow="inherit" xml:space="preserve">
<g>
	<line fill="none" stroke="#ED1C24" stroke-width="3" stroke-miterlimit="10" x1="69.62" y1="0" x2="69.62" y2="166.25"/>
	<line fill="none" stroke="#ED1C24" stroke-width="3" stroke-miterlimit="10" x1="71.23" y1="166.25" x2="71.23" y2="0.08"/>
	<path fill="none" stroke="#ED1C24" stroke-width="3" stroke-miterlimit="10" d="M51.973,100.162
		c-29.265-23.4-46.996-21.908-50.366-0.636c-1.36,8.585,10.091,35.042,46.103,4.463c37.055-31.464,52.212-25.985,30.3-7.307
		c-8.659,7.381-21.349,12.844-28.208,20.226c-4.509,4.852,4.353,10.43,24.652-6.797c18.249-15.488,50.995-38.205,58.157-14.216
		c5.19,17.387-22.02,34.07-46.076,6.744C62.474,75.314,47.565,78.491,51.898,86.868c5.687,10.997,25.515,16.664,33.844,26.71
		c8.573,10.339-0.979,15.154-13.367,3.497C59.056,104.542,51.973,100.162,51.973,100.162"/>
	<path fill="none" stroke="#ED1C24" stroke-width="3" stroke-miterlimit="10" d="M71.537,157.73
		c11.407-11.54-9.664-14.354-6.228-5.015c3.436,9.339,8.021,9.339,7.124,12.625C71.537,168.626,62.322,166.302,71.537,157.73"/>
</g>
</svg>
